<svg id="Calque_1" data-name="Calque 1" xmlns="http://www.w3.org/2000/svg" xmlns:xlink="http://www.w3.org/1999/xlink" viewBox="0 0 172.83 164.14"><defs><style>.cls-1{fill:#fff;}.cls-2{fill:#009;}.cls-3{fill:#e21168;}.cls-4{fill:url(#Dégradé_sans_nom_4);}.cls-5{fill:url(#Dégradé_sans_nom_4-2);}</style><linearGradient id="Dégradé_sans_nom_4" x1="42.17" y1="49.71" x2="42.17" y2="119.16" gradientUnits="userSpaceOnUse"><stop offset="0.15" stop-color="#ffdf8e"/><stop offset="0.46" stop-color="#f93"/><stop offset="0.81" stop-color="#e22d90"/><stop offset="1" stop-color="#fc164c"/></linearGradient><linearGradient id="Dégradé_sans_nom_4-2" x1="44.3" y1="88.21" x2="44.3" y2="110.79" xlink:href="#Dégradé_sans_nom_4"/></defs><title>TheWhiteRabbit-LogoOk-RVB</title><path class="cls-1" d="M145,44.55l2.38-3.87a.43.43,0,0,1,.74,0l2.06,3.82a.43.43,0,0,1-.37.63l-4.44.05A.43.43,0,0,1,145,44.55ZM128.8,38a3.69,3.69,0,0,1,4.7-1.11c1.77.81,2.54,2.62,1.71,4a3.68,3.68,0,0,1-4.7,1.12C128.74,41.23,128,39.42,128.8,38Z"/><path d="M127.15,51.08h0c.68.41,1.37.84,2,1.27Z"/><path d="M160.22,78.91l2.51,2.5Z"/><path d="M164.78,83.5a36,36,0,0,1,2.63,2.93A36,36,0,0,0,164.78,83.5Z"/><path d="M167.41,86.43a7.77,7.77,0,0,1,.47.66A7.77,7.77,0,0,0,167.41,86.43Z"/><path d="M137.59,54.1a.86.86,0,0,0-.19.11.4.4,0,0,0-.1.15A.47.47,0,0,1,137.59,54.1Z"/><path d="M47.83,147.4l2.35,3.82,2.61-10.07c-.51,0-1.08,0-1.66,0a9.73,9.73,0,0,1-.72,2.89A8.75,8.75,0,0,1,47.83,147.4Z"/><path class="cls-1" d="M168.19,83.3c-1.54-1.7-3.91-4-7.17-7.28l-5.36-5.32c-1.58-1.59-3.18-3.12-4.78-4.61,6.82.53,13.63.11,16-.69,1.05-.36,3.24-1.09,3.25-3.31s-1.81-3-6.24-4.52c-3.17-1.11-8-2.79-14.49-5.61,3-1.41,5-3.57,5.44-6.25,1-5.57-4.86-11.08-14.17-13.41-.81-.2-1.64-.37-2.48-.52a32.55,32.55,0,0,0-6.62-.47c-.43-.31-.92-.65-1.48-1a21.94,21.94,0,0,0-3.55-2c-1.28-.65-2.69-1.32-4.18-2A65.49,65.49,0,0,0,119,20.17C114.4,12.49,107.56,3.9,103.47,2.32a4.76,4.76,0,0,0-.61-.19h0a3.43,3.43,0,0,0-3.72,1.22c-.7.94-2.56,3.46,4.64,15.36a.25.25,0,0,1,0,.07c-2.09-.8-4.46-1.68-6-2.22l-.79,0C88.44,10.45,80.27,5.78,76,4.72h0a10.51,10.51,0,0,0-1.1-.21c-3-.39-4,1.28-4.33,2a4.21,4.21,0,0,0,.31,3.63,19.75,19.75,0,0,0-5-.61c-.63-.84-3.08-.92-3.51-1C54.55,9.5,9.16,52.6,9.16,52.6c-.19.09-.13.07,0,0l-.25.23A21,21,0,0,0,2.48,72.92l12,54.9a21,21,0,0,0,4.69,9.87c2.4,2.62,15.37,8.34,18.69,9.53,9.19,3.28,7.34,3.14,7.34,3.14s41.16,12.51,46.49,11.75l.49-.08a10.52,10.52,0,0,0,4.45-2c.22-.12,39-34.16,47.69-40.45,1.36-1,7.35-7.64,7.34-14.24h0c.17-4.22-1.64-14.15-4-24.87l.89.59c8.39,5.58,13.68,9,16.71,9.79A6.7,6.7,0,0,0,166,91c.86.12,3.46.46,4.51-1.69S169.62,84.89,168.19,83.3Z"/><path class="cls-1" d="M101.86,2a3.93,3.93,0,0,1,1,.13h0a4.76,4.76,0,0,1,.61.19C107.56,3.9,114.4,12.49,119,20.17a65.49,65.49,0,0,1,3.36,6.18c1.49.66,2.9,1.33,4.18,2a21.94,21.94,0,0,1,3.55,2c.56.35,1.05.69,1.48,1h1a33.45,33.45,0,0,1,5.6.48c.84.15,1.67.32,2.48.52,9.31,2.33,15.13,7.84,14.17,13.41-.46,2.68-2.4,4.84-5.44,6.25,6.54,2.82,11.32,4.5,14.49,5.61,4.43,1.55,6.26,2.19,6.24,4.52s-2.2,3-3.25,3.31a39.19,39.19,0,0,1-9.88.93c-2,0-4.06-.08-6.16-.24,1.6,1.49,3.2,3,4.78,4.61L161,76c3.26,3.24,5.63,5.58,7.17,7.28s3.4,3.76,2.31,6a3.44,3.44,0,0,1-3.33,1.78A8,8,0,0,1,166,91a6.7,6.7,0,0,1-.68-.13c-3-.75-8.32-4.21-16.71-9.79l-.89-.59c2.33,10.72,4.14,20.65,4,24.87h0c0,6.6-6,13.25-7.34,14.24-8.67,6.3-47.47,40.33-47.69,40.45a10.52,10.52,0,0,1-4.45,2l-.49.08a4.67,4.67,0,0,1-.57,0c-7.18,0-45.92-11.78-45.92-11.78h0c.19,0,1.11-.12-7.37-3.14-3.32-1.19-16.29-6.91-18.69-9.53a21,21,0,0,1-4.69-9.87l-12-54.9A21,21,0,0,1,8.87,52.86l.25-.23-.08,0,.12-.06S54.55,9.5,62.42,8.52c.43.11,2.88.19,3.51,1h.44a21.55,21.55,0,0,1,4.55.62,4.21,4.21,0,0,1-.31-3.63,3.49,3.49,0,0,1,3.48-2.08,6.41,6.41,0,0,1,.85.06,10.51,10.51,0,0,1,1.1.21h0c4.23,1.06,12.4,5.73,20.95,11.8l.79,0c1.58.54,4,1.42,6,2.22a.25.25,0,0,0,0-.07c-7.2-11.9-5.34-14.42-4.64-15.36A3.3,3.3,0,0,1,101.86,2m0-2h0a5.32,5.32,0,0,0-4.33,2.16c-1.4,1.91-2.16,5,1.88,12.85l-1-.34a1.64,1.64,0,0,0-.49-.1l-.26,0C88.74,8.25,80.87,3.87,76.53,2.78a12.27,12.27,0,0,0-1.33-.25,8.53,8.53,0,0,0-1.11-.08,5.54,5.54,0,0,0-5.32,3.29,5.42,5.42,0,0,0-.44,1.93c-.61-.07-1.17-.12-1.7-.13a8.61,8.61,0,0,0-3.42-.93l-.33,0a2.31,2.31,0,0,0-.46-.05h-.25c-1.51.19-5.53.69-30.66,22.9C20.08,39.53,9.37,49.64,7.94,51a2.24,2.24,0,0,0-.5.46A23.1,23.1,0,0,0,.53,73.35l12,54.9A22.62,22.62,0,0,0,17.72,139c3,3.26,17.3,9.28,19.48,10.06,4,1.43,5.71,2.14,6.43,2.47a1.88,1.88,0,0,0,1,.7c1.59.49,39.11,11.87,46.5,11.87a7.39,7.39,0,0,0,.86,0h.06l.57-.1a12.56,12.56,0,0,0,5.27-2.39h0c.38-.3,1.31-1.11,4.21-3.64,10-8.68,36.53-31.75,43.41-36.74,1.72-1.26,8.12-8.37,8.16-15.77v-.07c.13-3.43-.86-10.17-3-20.53,6.92,4.57,11.22,7.22,14.14,8a8.58,8.58,0,0,0,.91.18,12.6,12.6,0,0,0,1.44.1,5.36,5.36,0,0,0,5.13-2.9c1.68-3.44-1-6.42-2.63-8.2s-3.95-4.09-7.23-7.34c-1.59-1.58-3.37-3.34-5.36-5.34l-1-1H157c4.64,0,8.57-.39,10.51-1,1.14-.38,4.6-1.53,4.62-5.18s-3-4.82-7.58-6.43c-2.54-.89-6.14-2.15-10.9-4.1a9.6,9.6,0,0,0,3.17-5.53C158,39.4,151.56,33,141.2,30.36c-.86-.21-1.74-.4-2.63-.55a35.39,35.39,0,0,0-5.94-.51h-.4c-.32-.22-.65-.44-1-.66a23.32,23.32,0,0,0-3.78-2.12c-1.09-.55-2.28-1.12-3.55-1.7-.84-1.71-1.89-3.62-3.14-5.69C117.15,13.18,109.61,2.55,104.2.46a7.71,7.71,0,0,0-.86-.27A5.78,5.78,0,0,0,101.86,0Z"/><path class="cls-2" d="M128.88,29.54a20.88,20.88,0,0,0-2.3-1.2c-.47-.25-1-.49-1.47-.73a24.13,24.13,0,0,1,.84,2.47A26.67,26.67,0,0,1,128.88,29.54Z"/><path class="cls-2" d="M138.36,54l1.32,0Z"/><path class="cls-2" d="M123.36,48.89h0q-.87-.48-1.74-.93.87.45,1.74.93Z"/><path class="cls-1" d="M132.3,44.43a6.27,6.27,0,0,1-2.62-.58,5.48,5.48,0,0,1-3-3.24,4.45,4.45,0,0,1,.39-3.62,5.65,5.65,0,0,1,7.26-1.93,5.48,5.48,0,0,1,3,3.25,4.41,4.41,0,0,1-.38,3.62A5.27,5.27,0,0,1,132.3,44.43Zm-.58-5.94a1.39,1.39,0,0,0-1.19.5.46.46,0,0,0,0,.4,1.57,1.57,0,0,0,.85.83,1.79,1.79,0,0,0,2.14-.3.46.46,0,0,0,0-.4,1.52,1.52,0,0,0-.85-.82A2.32,2.32,0,0,0,131.72,38.49Z"/><path class="cls-1" d="M145.32,47.2a2.42,2.42,0,0,1-2.07-3.7l2.37-3.87a2.38,2.38,0,0,1,2.14-1.15,2.43,2.43,0,0,1,2.07,1.27l2.06,3.82a2.43,2.43,0,0,1-2.11,3.58l-4.44.05ZM149,41.72h0Zm-2.72-.07Z"/><path class="cls-1" d="M167.13,93.05a11.84,11.84,0,0,1-1.4-.09,8.58,8.58,0,0,1-.91-.18c-3.34-.83-8.5-4.2-17.33-10.06-5.55-3.7-11.29-7.51-15.33-9.58a61.3,61.3,0,0,0-13-5,43.51,43.51,0,0,0-28.63,2.34,2,2,0,0,1-2.39-.65l-1.85-2.48a2,2,0,0,1-.32-1.73,2,2,0,0,1,1.18-1.31l1.22-.49.77-.3L90,63.2l1-.35.69-.23.91-.28.82-.25,1.14-.31.69-.18,1.06-.25.73-.16,1.32-.27.66-.11,1.25-.2.61-.09,1.49-.17.65-.06c.47,0,1-.08,1.45-.11l.47,0c.55,0,1.1,0,1.66-.06h2.61c.61,0,1.21,0,1.82.1l.59,0c.63,0,1.26.1,1.9.18h.16c.67.08,1.32.17,2,.28l.56.09c.69.11,1.38.23,2.09.38s1.46.32,2.16.49l.65.16.92.24.76.21,1,.29.75.23,1,.33.74.25,1,.37L128,64l1,.4.78.31,1,.44.76.33c.41.18.82.38,1.22.57l.6.27,1.75.87,1,.54L143,71.87l5.81,3.79L163.48,85a.93.93,0,0,0-.14-.14c-.59-.62-1.27-1.31-2-2.07l-2.5-2.49-3-3L152.4,74l-.85-.83-.48-.47c-3.13-3.07-6.26-5.94-9.3-8.5-.58-.5-1.16-1-1.74-1.46-1.86-1.51-3.75-3-5.63-4.36h0c-1.39-1-2.78-2-4.14-2.91l-2-1.32-.12-.07c-.65-.42-1.3-.82-2-1.21l-.06,0-.2-.13c-1.17-.7-2.3-1.35-3.38-1.94l-.06,0-.07,0a78.06,78.06,0,0,0-13-5.66l-.42-.13q-.75-.24-1.5-.45l-.34-.11-1.74-.46.37-2-.52,1.93-.19,0c-.63-.16-1.28-.3-1.92-.44l-.27-.06c-.66-.13-1.33-.26-2-.37l-.37-.06c-.67-.11-1.34-.2-2-.28l-.17,0c-.64-.08-1.27-.15-1.91-.2h-.12c-.74-.06-1.38-.1-2-.12H94c-.64,0-1.29,0-1.91,0s-1.28,0-1.91,0H90c-.6,0-1.21.07-1.81.12H88c-1.23.11-2.43.26-3.61.45l-.15,0-1.71.31L82,41.17l.41,2-1.66.37a2,2,0,0,1-2.36-1.28l-.91-2.63A2,2,0,0,1,77.57,38a2,2,0,0,1,1.3-1,58.61,58.61,0,0,1,17.69-1.27c-4.15-2.85-8.45-6-12.34-9.18A105.5,105.5,0,0,1,72.86,16.16c-3-3.32-5.61-6.87-4.09-10.42.39-.9,2-3.79,6.43-3.21a12.74,12.74,0,0,1,1.33.25C81.36,4,90.6,9.34,100.07,16.27c-4.78-8.83-4-12.11-2.54-14.11a5.43,5.43,0,0,1,5.81-2,4.9,4.9,0,0,1,.85.27c5.42,2.09,13,12.72,16.56,18.67A46.06,46.06,0,0,1,126,30.06a31,31,0,0,1,12.62-.25c.88.15,1.76.34,2.63.55,10.36,2.59,16.8,9,15.66,15.69a9.6,9.6,0,0,1-3.17,5.53c4.76,2,8.36,3.21,10.9,4.1,4.58,1.6,7.61,2.66,7.58,6.43s-3.48,4.8-4.62,5.18c-2.14.72-6.59,1.09-11.44,1l1,1c1.88,1.89,3.57,3.57,5.08,5.06l.26.26c3.29,3.26,5.66,5.61,7.25,7.36h0c1.61,1.78,4.31,4.76,2.63,8.2C171.63,91.53,170.19,93.05,167.13,93.05Zm-1.72-4.26h0l.14-.6Zm-.59-.21.05,0L165,88Zm-15.49-27.3.49.08a72,72,0,0,0,11.56.21l-.55-.2c-1.18-.42-2.52-.9-4-1.47-1.14-.43-2.38-.9-3.71-1.43-1.9-.75-3.85-1.57-5.81-2.41h0l-.21,0-.15,0-.22,0a3.35,3.35,0,0,0-.55,0H146c-.85,0-2.42.08-3.81.08.63.48,1.29,1,1.95,1.5l2.59,2.08c.35.28.69.57,1,.85.13.11.28.21.42.31l.14.08.33.18.15.06.4.14Zm0,0h0Zm-2-5.21h0ZM138.2,56h0Zm-5.46-3.72c.87.58,1.73,1.18,2.58,1.79v0s0-.06,0-.1a2.58,2.58,0,0,1,.08-.26,2.43,2.43,0,0,1,.5-.83c-.42,0-.85-.12-1.28-.19h0C134,52.56,133.4,52.44,132.74,52.28Zm-4-5.53.43.18.14,0c.48.21,1,.4,1.51.58l.48.17c.49.16,1,.3,1.49.44l.29.08.24.06c.71.17,1.35.31,2,.42h0a27.15,27.15,0,0,0,7.43.27,13.31,13.31,0,0,0,6-2l.38-.3A3.16,3.16,0,0,0,150.33,45v-.06a2.63,2.63,0,0,0,0-.43l0-.13a3,3,0,0,0,0-.33l-.05-.2-.09-.31-.06-.14-.2-.4a1.74,1.74,0,0,0-.15-.26l-.22-.34c-.06-.09-.13-.17-.2-.26s-.19-.24-.3-.36l-.25-.27c-.11-.12-.24-.24-.37-.36l-.08-.07-.21-.2-.46-.37-.32-.25c-.18-.14-.38-.27-.57-.4l-.32-.21c-.26-.17-.54-.34-.83-.5l-.14-.08c-.36-.2-.72-.38-1.1-.56l-.33-.15-.84-.37-.47-.18-.79-.29-.53-.17-.78-.25-.58-.16-.48-.13-.23-.05c-.72-.17-1.33-.3-1.91-.4a28.85,28.85,0,0,0-4.48-.42,21.82,21.82,0,0,0-5.4.58,14,14,0,0,0-1.82.58c-1.1.45-3,1.43-3.3,3,0,.05,0,.1,0,.14a2.8,2.8,0,0,0,0,.4l.06.44a3.19,3.19,0,0,0,.1.35c0,.12.06.2.09.27a3,3,0,0,0,.22.44l.08.17a6.05,6.05,0,0,0,.35.51l.07.1a10.06,10.06,0,0,0,1.95,1.87l.12.09.3.17C126.45,45.41,127.88,46.22,128.76,46.75ZM116,43.17c1.29.54,2.58,1.11,3.88,1.72a7.38,7.38,0,0,1-.46-.72,2.26,2.26,0,0,1-.11-.22,6.57,6.57,0,0,1-.42-.88,2.39,2.39,0,0,1-.11-.32c-.11-.33-.19-.58-.25-.83s0-.33-.07-.5l0-.17a5.43,5.43,0,0,1-.06-.55,7.86,7.86,0,0,1,.07-1.06,1,1,0,0,1,0-.18,6.74,6.74,0,0,1,1.62-3.31h0a4.6,4.6,0,0,1-.5-.16h0a10.26,10.26,0,0,1-2.65-1.69c.3.34.6.69.87,1h0a2,2,0,0,1-2.72,2.89l-.4-.29,2.08,1.86a2,2,0,0,1-.73,3.39Zm-8.8-3,1,.27.37.11,1.59.48h0l-1.2-.65,0,0c-.47-.26-1-.53-1.44-.82,0,.11-.06.22-.1.33A2.11,2.11,0,0,1,107.22,40.18ZM103.47,7.76l.85,2.15,1.8,3.62.45.8.32.57.73,1.24.07.11c4.1,6.79,8.83,12.52,11.67,14.9l-.08-.24-.15-.42-.06-.15c0-.11-.09-.23-.13-.35l-.22-.52-.22-.5c-.08-.19-.16-.37-.25-.55l-.87-1.79-.39-.74-.29-.55-.57-1-.19-.34c-.27-.47-.56-.95-.85-1.44a82,82,0,0,0-8.66-11.85A30.6,30.6,0,0,0,103.47,7.76Zm-6.9,23.08,0,0,.33-.52Zm-8.18-9.45,1.74,1.38.24.2,1.69,1.31.32.24,1.7,1.28.3.22c.58.44,1.17.87,1.76,1.3l.13.09,1.81,1.3-1,1.7,1.15-1.63,1.31.91-3.88-3.47h0a2.87,2.87,0,0,1-.32-3.94,2.77,2.77,0,0,1,.83-.7l-1.43-1-.27-.2-1.8-1.26-.29-.2c-.59-.41-1.17-.81-1.76-1.2l-.29-.19c-.57-.39-1.15-.77-1.72-1.14l-.25-.16L86.6,15.11,86.45,15,84.7,14l-.09,0-1.63-1,.89-1.79-1,1.74L81.34,12,81.19,12c-.49-.26-1-.51-1.4-.73l-.21-.11-1.24-.6-.19-.09q-.59-.27-1.11-.48l-.19-.08c-.32-.13-.63-.25-.93-.35,2.06,2.81,6.67,7.2,12.46,11.87Zm33.18,8.13-.57.27.59-.23S121.58,29.53,121.57,29.52ZM109,26.62l.36.31.12.1L111,28.41l.25.23c.41.37.81.73,1.2,1.1-1-1.14-2-2.38-2.92-3.66a1.93,1.93,0,0,1-.27.3A2.25,2.25,0,0,1,109,26.62ZM96.86,25h0Zm4-16.66v0l.59-.23Z"/><path class="cls-3" d="M133.5,36.88A3.69,3.69,0,0,0,128.8,38c-.83,1.43-.06,3.24,1.71,4a3.68,3.68,0,0,0,4.7-1.12C136,39.5,135.27,37.69,133.5,36.88Z"/><path class="cls-3" d="M145.32,45.2l4.44-.05a.43.43,0,0,0,.37-.63l-2.06-3.82a.43.43,0,0,0-.74,0L145,44.55A.43.43,0,0,0,145.32,45.2Z"/><path class="cls-3" d="M168.19,83.3c-1.54-1.7-3.91-4-7.17-7.28l-5.36-5.32c-1.58-1.59-3.18-3.12-4.78-4.61,6.82.53,13.63.11,16-.69,1.05-.36,3.24-1.09,3.25-3.31s-1.81-3-6.24-4.52c-3.17-1.11-8-2.79-14.49-5.61,3-1.41,5-3.57,5.44-6.25,1-5.57-4.86-11.08-14.17-13.41-.81-.2-1.64-.37-2.48-.52a27.07,27.07,0,0,0-13.83.85c-.17-2.16-1.37-5.87-5.36-12.46C114.4,12.49,107.56,3.9,103.47,2.32a4.76,4.76,0,0,0-.61-.19h0a3.43,3.43,0,0,0-3.72,1.22c-.7.94-2.56,3.46,4.64,15.36,1.24,2.05,2.65,4.17,4.11,6.21-.7-.59-1.42-1.19-2.17-1.79-11.25-9.08-24-17-29.68-18.41h0a10.51,10.51,0,0,0-1.1-.21c-3-.39-4,1.28-4.33,2-.87,2,.21,4.42,3.73,8.28A103.43,103.43,0,0,0,85.48,25a191.52,191.52,0,0,0,20,14.16,57.67,57.67,0,0,0-26.19-.2l.91,2.63c.57-.14,1.14-.27,1.72-.39l.15,0c.59-.12,1.18-.22,1.78-.32l.15,0c1.21-.19,2.46-.35,3.74-.46l.21,0c.62-.05,1.26-.09,1.9-.12h.18c.65,0,1.31,0,2,0h0c.66,0,1.33,0,2,0h.29l2,.12.22,0c.66.05,1.32.12,2,.2l.16,0q1,.12,2.07.3l.38.06c.69.12,1.39.24,2.09.39l.26.05c.66.14,1.33.3,2,.46l.21,0,.11,0,1.8.48.36.11c.51.14,1,.3,1.55.47l.42.13a77.9,77.9,0,0,1,13.37,5.81h0l.09.06c1.13.61,2.27,1.27,3.43,2l.23.14h0l2,1.26.12.08c.66.42,1.32.85,2,1.3l.06,0q2.08,1.4,4.22,3h0q2.81,2.06,5.7,4.43h0l1.78,1.47q4.59,3.88,9.4,8.6l1.34,1.32L157.24,76l1.56,1.55,1.42,1.4,2.51,2.5c.76.77,1.45,1.46,2.05,2.09a38,38,0,0,1,2.63,2.92,7.77,7.77,0,0,1,.47.67c.36.6.42,1,.16,1.18a.85.85,0,0,1-.36.14,1.09,1.09,0,0,1-.26,0,5.5,5.5,0,0,1-1.09-.06h0a3.39,3.39,0,0,1-.39-.08h0l-.24-.07-.28-.09-.27-.1-.32-.12-.3-.14-.35-.15-.34-.17-.38-.19-.37-.19-.4-.21-.4-.22-.43-.24-.43-.25-.44-.26-.46-.27-.47-.28-.49-.3-.47-.29-.52-.32-.48-.31c-.19-.11-.37-.23-.55-.35l-.49-.31-.58-.37-.49-.31-.61-.41c-.16-.09-.31-.2-.46-.3l-.68-.44-.44-.29-.71-.47-.41-.27-.79-.52-.3-.2-3.85-2.56-.3-.2-.81-.53-.42-.28-.75-.49-.44-.29-.73-.48-.45-.3-.72-.46-.45-.29-.7-.45-.45-.28-.68-.43-.44-.28-.68-.41-.42-.27-.67-.4-.41-.25-.64-.38-.4-.23-.67-.38-.33-.19-.71-.4-.26-.14-.92-.48-.07,0-1.71-.85-.58-.26c-.39-.19-.79-.38-1.18-.55l-.67-.29L129,66.58l-.7-.28-1-.41-.72-.26-1-.36-.73-.25-.95-.31-.73-.23-.92-.27-.74-.21-.89-.24-.63-.15c-.67-.16-1.34-.32-2-.46h-.08c-.68-.14-1.35-.26-2-.37l-.54-.09-1.88-.26-.17,0c-.62-.07-1.23-.12-1.84-.17l-.56,0-1.74-.09h-2.52l-1.59,0-.46,0-1.39.11-.62.06c-.48,0-1,.1-1.43.17l-.58.08-1.21.19-.64.11-1.26.25-.7.16-1,.24-.65.17-1.11.3-.79.24-.87.27-.67.22-1,.34-.85.32-.74.29-1.21.48,1.84,2.48a45.43,45.43,0,0,1,29.91-2.44,62.56,62.56,0,0,1,13.47,5.15c4.15,2.12,9.93,6,15.53,9.69,8.39,5.58,13.68,9,16.71,9.79A6.7,6.7,0,0,0,166,91c.86.12,3.46.46,4.51-1.69S169.62,84.89,168.19,83.3ZM97,24.73l18.47,16.54h0a43.28,43.28,0,0,1-5.49-2.63h0c-.52-.29-1.06-.59-1.62-.92l-.05,0c-1.67-1-3.46-2.07-5.32-3.28l-.09-.06-1.78-1.17-.21-.14-1.77-1.19-.22-.16L97,30.41l-.1-.07L95.11,29,95,28.93l-1.78-1.3a3.15,3.15,0,0,0-.29-.22l-1.72-1.3-.32-.25q-.85-.64-1.71-1.32l-.25-.2c-.59-.46-1.18-.92-1.75-1.39h0C80.6,17.67,76,13.13,74,10.26,72.47,8,72.55,6.83,74.6,7.1h0a5.94,5.94,0,0,1,.73.15h.08l0,0c.29.07.61.17.94.28l.16.05,1.06.4.18.08c.38.15.77.33,1.18.51l.21.1c.42.19.85.4,1.3.63l.2.1,1.44.75.16.09,1.58.88.1.06c.54.31,1.1.63,1.66,1l.1.06c.57.34,1.15.69,1.74,1.06l.19.12,1.74,1.11.24.15,1.76,1.16.29.19,1.78,1.21.29.21c.6.41,1.2.84,1.81,1.27l.28.2,1.85,1.33.25.19c.63.47,1.26.93,1.88,1.41l.2.15L102,23.49l.11.09c.67.52,1.33,1.05,2,1.58s1.25,1,1.84,1.51l.39.33c.59.49,1.16,1,1.71,1.45l.11.1,1.53,1.35.24.21,1.5,1.38.07.07c.49.46,1,.9,1.38,1.33l0,0c.45.45.87.88,1.27,1.3h0c.39.41.76.81,1.1,1.19l0,0c.34.38.65.75.93,1.1h0L98,23.38a.75.75,0,0,0-.3-.14A.87.87,0,0,0,97,24.73Zm23.34,9.38c-3-1.15-9.37-8.65-14.27-16.75l-.11-.19c-.26-.43-.51-.86-.75-1.28l-.31-.53c-.16-.29-.33-.58-.48-.86l-.31-.59c-.14-.25-.27-.51-.4-.75l-.29-.58c-.11-.23-.23-.46-.34-.68l-.26-.56-.28-.62-.23-.53L102,9.63c-.07-.17-.13-.33-.19-.49l-.19-.51c-.05-.16-.1-.3-.14-.45s-.11-.31-.15-.46-.07-.26-.1-.4-.07-.27-.1-.4l-.06-.35c0-.11,0-.23,0-.34s0-.2,0-.29V5.66q0-.13,0-.24a1.42,1.42,0,0,1,0-.22c0-.06,0-.12.07-.17a.86.86,0,0,1,.1-.16l.12-.11.15-.08.16,0h.21l.21,0h.1l.3.1h0c1.29.5,3.22,2.19,5.39,4.6a84.09,84.09,0,0,1,8.88,12.16l.87,1.47.2.35c.2.36.4.71.58,1.05.1.17.18.33.27.5l.44.83.27.53.36.73c.09.18.16.36.25.54l.29.63.22.52c.08.2.17.39.24.57s.13.33.19.49.13.35.19.52.1.3.14.44l.15.46c0,.14.07.27.1.4s.07.27.1.4l.06.35c0,.12,0,.23,0,.34s0,.2,0,.3a1.31,1.31,0,0,1,0,.28,1.64,1.64,0,0,1,0,.23c0,.08,0,.16-.05.22s0,.12-.07.18l-.1.15-.12.11-.15.08-.17.05h-.2l-.21,0h-.1l-.3-.1ZM135,50.7c-.72-.13-1.42-.28-2.11-.45l-.15,0-.42-.12c-.54-.14-1.08-.3-1.6-.47l-.52-.18c-.56-.19-1.11-.4-1.63-.63l-.71-.29c-1.15-.7-3.49-2-3.52-2l-.2-.16h0a12.17,12.17,0,0,1-2.4-2.34l0,0a6,6,0,0,1-.51-.77.83.83,0,0,1-.07-.13,5.73,5.73,0,0,1-.34-.71c0-.08,0-.16-.08-.25a4.43,4.43,0,0,1-.18-.59,3,3,0,0,1-.05-.42c0-.14,0-.29-.06-.44a5.12,5.12,0,0,1,.06-.78v-.07c.34-2,2-3.55,4.53-4.57a16.53,16.53,0,0,1,2.09-.67,24,24,0,0,1,5.91-.64,31.2,31.2,0,0,1,4.8.45c.7.12,1.38.27,2,.43l.25.05.5.14.62.17.85.26.58.19.84.32.51.19c.31.13.61.26.9.4l.37.16c.41.2.81.4,1.19.61l.17.1c.32.18.63.36.93.55l.35.24.65.45.37.29.53.43.34.32a6.25,6.25,0,0,1,.45.44c.11.1.21.21.31.32l.37.45.26.34.3.46.2.34c.08.16.16.31.23.47s.1.23.14.34a4.58,4.58,0,0,1,.15.49l.09.33a5,5,0,0,1,.06.54l0,.27a5.52,5.52,0,0,1-.06.81h0a5.12,5.12,0,0,1-1.85,3,5.7,5.7,0,0,1-.53.41A15.16,15.16,0,0,1,143,51,28.72,28.72,0,0,1,135,50.7Zm13.83,12.51h0l-.14,0a6.5,6.5,0,0,1-.62-.22l-.23-.1a5,5,0,0,1-.51-.27l-.21-.12a5.93,5.93,0,0,1-.64-.48h0l-1-.83-.37-.31-.63-.5-.48-.39-.51-.4-.55-.44c-1.87-1.45-3.71-2.8-5-3.75a2,2,0,0,1-.54-.54.67.67,0,0,1-.1-.21.09.09,0,0,1,0-.05.33.33,0,0,1,0-.14s0,0,0,0a.47.47,0,0,1,.29-.26l.08,0,.21,0,.1,0a2.31,2.31,0,0,1,.38,0c.74,0,1.8,0,2.91,0,1.84,0,3.81,0,4.68-.08H146a5.89,5.89,0,0,1,.84,0l.33.05a5.4,5.4,0,0,1,.58.1h0l.1,0,.1,0c2.12.92,4.05,1.72,5.82,2.42,1.32.53,2.54,1,3.67,1.42,1.51.56,2.84,1,4,1.45l.84.3c1.35.47,2.43.85,3.26,1.16.32.12.61.23.86.34a5.09,5.09,0,0,1,.61.29,1.9,1.9,0,0,1,.37.26c.37.37-.08.67-1.34,1.08-2,.68-9.3,1.16-16.47.44A7.21,7.21,0,0,1,148.81,63.21Z"/><path class="cls-2" d="M155.27,73.07l-.65-.65.65.65.89.88Z"/><path class="cls-1" d="M152.24,113a2.12,2.12,0,0,0-1.76-.48l-19.61,3.6a2.2,2.2,0,0,0-1.12.61,2.1,2.1,0,0,0-1.26-.17l-8,1.46a2.11,2.11,0,0,0-1.72,2l-.16,5.83a6.92,6.92,0,0,0-1.72-3.52,7.13,7.13,0,0,0-3-1.84h0l2.51-.46a2.1,2.1,0,0,0,1.72-2l0-1.69a2.1,2.1,0,0,0-.75-1.63,2.13,2.13,0,0,0-1.73-.46l-1.77.33v-.42l2-.36a2.11,2.11,0,0,0,1.72-2l0-1.65a2.1,2.1,0,0,0-2-2.16l1.15-.22a2.11,2.11,0,0,0,1.73-2l0-1.68a2.07,2.07,0,0,0-.74-1.65,2.11,2.11,0,0,0-1.74-.47l-8.93,1.64a1.93,1.93,0,0,0-.67.25,2.28,2.28,0,0,0-.69,0l-7.55,1.39a2.15,2.15,0,0,0,.55-1.29l.1-1.89a1.78,1.78,0,0,0,0-.61,4.92,4.92,0,0,0,.26-1.29v-.21a5.84,5.84,0,0,0,0-1c0-.1,0-.2,0-.31a3.9,3.9,0,0,0-2.46-3.06,7,7,0,0,0-3.78-.16,9.85,9.85,0,0,0-3.2,1.09,7.35,7.35,0,0,0-1.49,1.15,3.41,3.41,0,0,0-.49-.31,4.29,4.29,0,0,0-2.87-.38l0-1.53A2.07,2.07,0,0,0,84,93.72a2.11,2.11,0,0,0-1.74-.47l-3.47.64a2.1,2.1,0,0,0-1.36.89l-8.59,1.58a2.11,2.11,0,0,0-1.72,2l-.07,1.34a2.1,2.1,0,0,0,2.48,2.18l.13,0-.11,4.07h0L69.48,109a2.09,2.09,0,0,0,.52,1.43A2.09,2.09,0,0,0,68.81,112l-.08.41a2.1,2.1,0,0,0-2.35-1.33l-4.19.77a2.11,2.11,0,0,0-1.69,1.68v.06a2.11,2.11,0,0,0-2.21-1l-5.17.95a2.1,2.1,0,0,0-1.66,2.58l3.36,13.3a2.08,2.08,0,0,0,.85,1.21,2,2,0,0,0-.31.67l-5.17,20-2.35-3.82a8.66,8.66,0,0,0,2.57-3.31,9.35,9.35,0,0,0,.61-5.42,7.62,7.62,0,0,0-1.68-3.74,6.92,6.92,0,0,0-3-2,10,10,0,0,0-3.52-.42,26.34,26.34,0,0,0-3.5.41l-9.65,1.77a2.11,2.11,0,0,0-1.72,2l-.67,24.19a2.11,2.11,0,0,0,.73,1.66,2.08,2.08,0,0,0,1.37.5l.38,0,7.92-1.45a2.11,2.11,0,0,0,1.72-2l.1-3.4,1.73,3.26a2.1,2.1,0,0,0,2.24,1.08l11.33-2.08a2.09,2.09,0,0,0,1.66-1.57l1.21-5,3.55-.65,1.07,3.88a2.1,2.1,0,0,0,2.41,1.51l8.57-1.58a2.15,2.15,0,0,0,.85-.36,2.18,2.18,0,0,0,.91,0l10.89-2a19.09,19.09,0,0,0,5-1.6,12.75,12.75,0,0,0,3.68-2.63c.26-.28.5-.57.72-.86l0,.77a2.12,2.12,0,0,0,2.1,2.17,1.58,1.58,0,0,0,.38,0l10.89-2a19.46,19.46,0,0,0,5-1.59,12.77,12.77,0,0,0,3.68-2.64c.26-.28.5-.56.73-.86l0,.78a2.13,2.13,0,0,0,.74,1.65,2.09,2.09,0,0,0,1.37.51l.38,0,7.92-1.46a2.1,2.1,0,0,0,1.72-2l.58-19.71a2.29,2.29,0,0,0,.64,0l3.28-.6-.53,18.69a2.1,2.1,0,0,0,2.1,2.17,1.64,1.64,0,0,0,.38,0l7.92-1.45a2.1,2.1,0,0,0,1.72-2l.56-19.59,4.22-.78a2.09,2.09,0,0,0,1.72-2l.12-2.9A2.14,2.14,0,0,0,152.24,113Zm-79,15.4-.47,16.76-.33-1.09v0l-4.32-14.49a2.32,2.32,0,0,0-.29-.59l2.92-.54a2.09,2.09,0,0,0,1.68-1.67l0-.2a2.24,2.24,0,0,0,.52.67,2.09,2.09,0,0,0,.47.3A2.11,2.11,0,0,0,73.21,128.42Zm4-19.38v0h0Zm18.41,28.5a6.81,6.81,0,0,0-1.21-1.29,9.2,9.2,0,0,0,.66-1,6.9,6.9,0,0,0,.65-1.59Zm.37-13.3-.17,5.83a6.87,6.87,0,0,0-1.71-3.52,7.13,7.13,0,0,0-3-1.84h0l2.28-.42a2.11,2.11,0,0,0,1.72-2l.08-2.71h0l.23-7.9.49-.09-.28,9.72a2.17,2.17,0,0,0,.74,1.66l.07,0A2.06,2.06,0,0,0,96,124.24Zm8.37-3.23a2.12,2.12,0,0,0,.06-.44l.3-10.62.56-.1-.27,9.72a2,2,0,0,0,.37,1.25Zm14.06,12.35a6.59,6.59,0,0,0-1.21-1.3,8.42,8.42,0,0,0,.67-1,7.6,7.6,0,0,0,.65-1.58Z"/><polygon class="cls-3" points="69.17 99.77 71.86 99.28 71.58 109.08 75.23 108.42 75.51 98.61 78.22 98.11 78.28 96.77 69.24 98.43 69.17 99.77"/><path class="cls-3" d="M86.62,99.16A2.28,2.28,0,0,0,85.09,99a3,3,0,0,0-1.06.38,4.54,4.54,0,0,0-.77.58,4.78,4.78,0,0,0-.64.73l-.11,0,.15-5.37L79.19,96l-.31,11.79,3.44-.64.16-5.44a4.26,4.26,0,0,1,.36-.47,1,1,0,0,1,.54-.32.47.47,0,0,1,.41.09.66.66,0,0,1,.2.39,2.58,2.58,0,0,1,0,.42c0,.16,0,.32,0,.47l-.12,4.57,3.43-.62.11-3.43c0-.18,0-.39,0-.62l0-.69v-.64a2.76,2.76,0,0,0,0-.54A1.46,1.46,0,0,0,86.62,99.16Z"/><path class="cls-3" d="M97,100a4.09,4.09,0,0,0,0-1,1.81,1.81,0,0,0-1.15-1.49,5,5,0,0,0-2.64,0,7.9,7.9,0,0,0-2.52.84,4.54,4.54,0,0,0-1.48,1.3,3.68,3.68,0,0,0-.62,1.57,5.5,5.5,0,0,0,0,1.67,3.52,3.52,0,0,0,.59,1.47,2.68,2.68,0,0,0,1,.83,3.48,3.48,0,0,0,1.36.29,7.59,7.59,0,0,0,1.6-.14,9.68,9.68,0,0,0,1-.21,10,10,0,0,0,1-.32,6.07,6.07,0,0,0,.89-.42,3.48,3.48,0,0,0,.71-.51l.1-1.89-2.77.51a2.28,2.28,0,0,1-.16.66,2.83,2.83,0,0,1-.29.52,1.69,1.69,0,0,1-.34.36.64.64,0,0,1-.32.16.42.42,0,0,1-.34-.05.85.85,0,0,1-.22-.24,1.62,1.62,0,0,1-.13-.33,1.57,1.57,0,0,1-.08-.33,4.84,4.84,0,0,1-.09-.62c0-.22,0-.47,0-.72l4.75-.87A2.88,2.88,0,0,0,97,100Zm-5,1a4.7,4.7,0,0,1,.11-.85,3.79,3.79,0,0,1,.21-.74,2,2,0,0,1,.33-.55.87.87,0,0,1,.46-.27.55.55,0,0,1,.44.12,1.05,1.05,0,0,1,.3.68c0,.12,0,.26.05.4s0,.29,0,.42,0,.3,0,.44Z"/><path class="cls-3" d="M57.38,131.77,51,156.52l-6-9.74a7.62,7.62,0,0,0,3.49-3.52,7.2,7.2,0,0,0,.47-4.22,5.48,5.48,0,0,0-1.18-2.72A4.73,4.73,0,0,0,45.67,135a7.85,7.85,0,0,0-2.77-.32,25.54,25.54,0,0,0-3.22.38L30,136.79,29.36,161l7.92-1.45.3-10.56.4-.07,5.09,9.56L50.84,157l.41-.08h0l3.15-.58,1.53-6.3,6.78-1.25,1.59,5.74L72.87,153l-6.8-22.81ZM41.67,143.52a5.08,5.08,0,0,1-.81,1.76,2.32,2.32,0,0,1-1.51.94l-1.73.32.31-8.62,1.65-.3a1.45,1.45,0,0,1,1.56.41,3.86,3.86,0,0,1,.63,1.57,11.92,11.92,0,0,1,.15,1.85A8.27,8.27,0,0,1,41.67,143.52Zm15,3.66,2.64-10.79L62,146.2Z"/><path class="cls-3" d="M94.13,139.07A4.63,4.63,0,0,0,93,137.81a4.58,4.58,0,0,0-1.22-.66,7,7,0,0,0-1-.29,11.74,11.74,0,0,0,1.43-1.25,6.43,6.43,0,0,0,1.07-1.4,5.27,5.27,0,0,0,.59-1.67,5.66,5.66,0,0,0,0-2A4.89,4.89,0,0,0,92.62,128a4.94,4.94,0,0,0-2.12-1.29,7.68,7.68,0,0,0-2.67-.33,21.32,21.32,0,0,0-2.88.32l-9.64,1.77-.68,24.19,10.89-2a17.39,17.39,0,0,0,4.5-1.41,10.62,10.62,0,0,0,3.08-2.2,6.64,6.64,0,0,0,1.77-5.95A5.61,5.61,0,0,0,94.13,139.07Zm-10.92-9.46,1.1-.2a1.75,1.75,0,0,1,1.69.46,3.24,3.24,0,0,1,.83,1.73,7.08,7.08,0,0,1,.09,1.51,6.85,6.85,0,0,1-.26,1.65,3.94,3.94,0,0,1-.72,1.36,2.14,2.14,0,0,1-1.29.73l-1.69.31Zm3.51,16.22a5.3,5.3,0,0,1-.93,1.76,2.74,2.74,0,0,1-1.72,1l-1.46.27.2-9,1.36-.25A1.94,1.94,0,0,1,86,140a3.49,3.49,0,0,1,.91,1.93,9.91,9.91,0,0,1,.12,1.82A7.5,7.5,0,0,1,86.72,145.83Z"/><path class="cls-3" d="M116.94,134.88a4.59,4.59,0,0,0-1.12-1.25,4.4,4.4,0,0,0-1.23-.67,6.8,6.8,0,0,0-1-.28,12.67,12.67,0,0,0,1.43-1.25,6.25,6.25,0,0,0,1.07-1.41,5.22,5.22,0,0,0,.59-1.66,5.72,5.72,0,0,0,0-2,4.6,4.6,0,0,0-3.31-3.86,7.9,7.9,0,0,0-2.67-.32,18.8,18.8,0,0,0-2.88.32l-9.64,1.77-.67,24.18,10.88-2a16.54,16.54,0,0,0,4.5-1.41,10.6,10.6,0,0,0,3.08-2.19,6.68,6.68,0,0,0,1.63-2.78,6.81,6.81,0,0,0,.14-3.18A5.8,5.8,0,0,0,116.94,134.88ZM106,125.42l1.1-.2a1.78,1.78,0,0,1,1.7.47,3.28,3.28,0,0,1,.83,1.72,7.23,7.23,0,0,1,.08,1.52,6.77,6.77,0,0,1-.26,1.64,3.85,3.85,0,0,1-.72,1.36,2.1,2.1,0,0,1-1.29.73l-1.68.31Zm3.51,16.22a5.2,5.2,0,0,1-.93,1.76,2.71,2.71,0,0,1-1.72,1l-1.46.27.2-9,1.36-.25a2,2,0,0,1,1.84.44,3.53,3.53,0,0,1,.91,1.94,9.79,9.79,0,0,1,.12,1.81A7.5,7.5,0,0,1,109.52,141.64Z"/><polygon class="cls-3" points="120.24 144.3 128.16 142.84 128.87 118.65 120.91 120.11 120.24 144.3"/><polygon class="cls-3" points="131.25 118.21 131.1 121.12 136.93 120.05 136.56 133.25 136.56 133.25 136.52 134.68 136.52 134.68 136.33 141.34 144.25 139.89 144.85 118.6 150.75 117.51 150.86 114.61 131.25 118.21"/><polygon class="cls-3" points="69 122.2 66.76 113.12 62.56 113.89 60.71 123.72 58.66 114.61 53.49 115.56 56.85 128.86 61.94 127.92 63.73 119.73 65.57 127.26 70.34 126.38 73.11 111.96 70.88 112.36 69 122.2"/><polygon class="cls-3" points="81.73 116.42 79.14 116.9 79.32 110.82 74.72 111.66 74.33 125.65 78.91 124.81 79.08 118.58 81.68 118.1 81.51 124.33 86.09 123.49 86.53 109.49 81.9 110.34 81.73 116.42"/><polygon class="cls-3" points="88.45 123.06 93.03 122.22 93.44 108.22 88.84 109.07 88.45 123.06"/><polygon class="cls-3" points="94.73 109.65 98.1 109.03 97.76 121.35 102.34 120.51 102.69 108.19 106.1 107.57 106.16 105.89 94.82 107.97 94.73 109.65"/><polygon class="cls-3" points="116.41 105.67 116.45 104 107.52 105.64 107.13 119.63 116.06 117.99 116.08 116.3 111.75 117.09 111.89 112.38 115.52 111.71 115.57 110.06 111.94 110.72 112.08 106.47 116.41 105.67"/><path class="cls-4" d="M58.56,50.76a2.14,2.14,0,0,0-1.55-1,1.46,1.46,0,0,0-.42,0,2.54,2.54,0,0,0-1.07.44c-9.23,6.75-5.48,3.1-10.06,8.65-.46.55-.9,1.13-1.33,1.72,1.31-2.63,1.23-5.71-.45-7.72-2.2-2.64-6.3-2.43-9.17.46s-3.4,7.38-1.2,10,6.31,2.44,9.17-.46c.12-.11.22-.23.32-.34-5.5,8.56-8.73,19.8-12.93,26.11a55.86,55.86,0,0,1-4.28,5.53c-4.45,5.19-9.92,18.5-3.52,25a34.73,34.73,0,0,1,3.09-8.43l.2-.38C29.64,102,39.15,89.51,59.71,81.56a18.79,18.79,0,0,0,4.48-2.14,6.33,6.33,0,0,0,.91-1.94C65.73,72.65,63.3,55.24,58.56,50.76Z"/><path class="cls-5" d="M39.36,95.87c-1.68,4.07-2.54,8.91-.9,12.56a8.38,8.38,0,0,0,.78,1.36,8.19,8.19,0,0,0,.53.67h0c.1.11.18.22.29.33s.66-2.54,1.2-3.93a38.79,38.79,0,0,1,2.8-5.75,45.5,45.5,0,0,1,5.7-7.64,4.72,4.72,0,0,0,.78-5.26A66.9,66.9,0,0,0,39.36,95.87Z"/><path class="cls-2" d="M43.69,132c0,.1.07.17.12.08a9.42,9.42,0,0,1,2.53-3,11.89,11.89,0,0,0-.27,3.79l.26.07c.22.07.43.16.64.25-.11-5,2.64-9.57,5.53-13l-.24-1C48.62,123.16,44.87,128.44,43.69,132Z"/><path class="cls-2" d="M116.88,107.72l-.09,0-1.15.21a2.11,2.11,0,0,1,1.3.5,2,2,0,0,1,.52.69,35.57,35.57,0,0,1,9.46,7.72l1.58-.29a2.18,2.18,0,0,1,1.26.17,2.22,2.22,0,0,1,.45-.34C126.94,112.87,120.81,109.46,116.88,107.72Z"/><path class="cls-2" d="M97.82,150.55a1.58,1.58,0,0,1-.38,0,2,2,0,0,1-1-.26A21.89,21.89,0,0,0,94.57,152a7.71,7.71,0,0,0-1,1.15c-1.06,1.5-4.62,5.85-8.82,3.54,4.54-1.57,7.82-5.17,9.87-8.15A12.86,12.86,0,0,1,91,151.15a19.46,19.46,0,0,1-5,1.59l-.39.07a2.29,2.29,0,0,0-.59,2.22c.28.61-2.51.17-5.11-.65a5.92,5.92,0,0,0,3.23-1.11l-8,1.47a2.43,2.43,0,0,1-.38,0,2.33,2.33,0,0,1-.53-.07,2,2,0,0,1-.85.36l-7.8,1.44c12.1,3.16,23.83,6,26.25,5.61a4.17,4.17,0,0,0,.49-.08,10.4,10.4,0,0,0,4.45-2c.08,0,6-5.18,13.63-11.82-.5.13-1,.25-1.57.35Z"/><path class="cls-2" d="M148.32,83.29l-.83-.55c-2-1.3-3.94-2.62-5.86-3.87.84,4.06,3.31,16.31,3,18.07-.2,1.3.79,4.75,1.8,7.57,1.24,1.21-.94,6.42-6.65,3.83a4.21,4.21,0,0,0-2.79-1.07c-1.71.22-5.24-1.07-7-1.77a2.51,2.51,0,0,0-1.73,0c-.93.3-2.67.43-5-1.43-.63-1.42-1-2-9.69-5.09l-1.28.47-.78-.36a6,6,0,0,0-4.42-2.72s-1.37,0-2.68-.1c-1.17-.83-2.35-3.11-5-3s-5.22-2.87-7.84-1.73c-.5-.13-4.69-.82-4.86-1.56a68.63,68.63,0,0,1-2.48-10.2l-2-9.84a5,5,0,0,0-.55-1.46L80,64.06a11.87,11.87,0,0,1-.6-1.86c-.33-1.41-1.35-4.86-4.45-11.12A.1.1,0,0,0,75,51a23.52,23.52,0,0,0-.1-3.09A12.06,12.06,0,0,0,73.54,43a1.57,1.57,0,0,0-.12-.19c-1.55-2.1-7.49-19.8-6.22-23.38.26-.72,2.91-2.38,6.93-.51a5.34,5.34,0,0,1,2.53,2.48,3.35,3.35,0,0,0,.27.45,4.36,4.36,0,0,0,2.3,1.6,10.94,10.94,0,0,1,2.1.88,2.19,2.19,0,0,0,.43.19,97.61,97.61,0,0,1-8.9-8.34C71,14.11,69.24,11.93,68.6,9.73a14.16,14.16,0,0,0-2.67-.18c-.63-.84-3.08-.91-3.51-1C54.55,9.51,9,52.68,9.13,52.63l-.26.24A21,21,0,0,0,2.48,72.92l12,54.9a21,21,0,0,0,4.69,9.87c1.16,1.27,4.77,3.25,8.58,5.1l.17-6a2,2,0,0,1,.34-1.08l-.18-.1a1.64,1.64,0,0,1-1-1.59c.37-4.34,6.32-3.6,7.39-4.38,1.76-1.28,5.67-4.83,7-5.43s-.29-.94-.56-.93c-.76,0-.75-.43.72-1.25s3.09-1.75,4.37-2.59a10.16,10.16,0,0,0-.61,2.16.13.13,0,0,0,.23.09,77.27,77.27,0,0,1,5.66-7.47,3,3,0,0,1,.65-.58,43.4,43.4,0,0,0,4.22-3.29,2.6,2.6,0,0,0,.74-1.31c.45-1.74,2.6-2.4,3.48-2.69a.78.78,0,0,0,.57-.8c-.11-1.12,3.58-3.59,6.15-5.28a2.09,2.09,0,0,1,0-.56l0-.88a3.4,3.4,0,0,1-2.69.54,49.27,49.27,0,0,0,6.34-6.5c1.06-1.37,2.47-2.56,2.36-3.93-.18-2.3-.11-1.47,1-.34s-.41-7.16-.67-8.49a12.9,12.9,0,0,0-.45-2.3,23.24,23.24,0,0,1-.75-3.23c-.22-1.19.44-6.8-1.34-9.08a4.25,4.25,0,0,1-.79-1.94c-1.52-9-3.1-16.44-12-21-.12-.06-1.27-.2-1,.61.06.17.3.2.45.31C64.5,48.37,68.34,65,67,67.86c-1,2.17,2,.85,2.16,2.06.84,6.58,1.07,12.35.64,15.13,0,.28-.09.55-.15.81-.29,1.06-.59,2-.89,2.94-1.41,3.8-3.08,4.76-3.57,5.8a.08.08,0,0,1-.15-.06c.53-1.86,1.36-7.72-.55-8-.52-.08-.22.55-.39,1.86a12.67,12.67,0,0,1-.64,2.75,51.78,51.78,0,0,1-3.18,7.3c-1.31-.11-3.45-.62-4.1-.55a1.13,1.13,0,0,0-.92,1.6c.8,1.64,3.44,6-4.45,11.26a2.45,2.45,0,0,1-1.83.34c-3.56-.72-4.33,3.09-10,8.83-3.18,3.47-13.66,4.33-17,13.64,0,.07-4.05-2.16-3.71-8.11l0-.73c1.68,1.28,15.48-.57,26.28-16.41.53-.78,2.45-3.23,1.36-3.14-1.68,1.59-4.16,4.72-5.65,6.19-8,7.87-17,12.67-21.47,9a8.23,8.23,0,0,1-.65-.66,6.61,6.61,0,0,0-1.1-3.08c-4.93-6.48-4.39-13.15-4.61-13.91,2.05,4.84,6.9,2.57,4.77,1.7-4.33-1.77-5.28-6.9-8.22-17.14L9,86.82c-.26-2.51-.84-3.23-.84-3.23h0c-2.88-3-1.47-7.79-1.47-7.79,1.66,8.61,8.61,19.42,11.06,22.89a.24.24,0,0,0,.42-.21A12.36,12.36,0,0,1,17.67,92a4.15,4.15,0,0,0-1.93-4,6.62,6.62,0,0,1-2.82-3.23c-1-2.38-2.31-7.15-2.11-8.53A15.56,15.56,0,0,0,10.26,71a6.38,6.38,0,0,0-1.42-2.71l-.18-.21C7.73,67,3.81,61.4,11.11,56.66,8.69,64.53,13,72.54,15,75.6a.14.14,0,0,0,.25-.14c-1.77-4.24-2.15-8.59-1.55-11.2.66-2.92-.94-4.29-1.75-4.35s.06-2,4.18-6.7c-1.81,2.65-2.23,5.85-1.45,6.27S19.81,51,20,50.08a14.85,14.85,0,0,1,1.43-2.37l.7-.54.91-.78C14,60.1,15,72,17.53,80.45a.2.2,0,0,0,.39-.08c-.84-8.48-.52-15,2.46-22.54S33.93,42.57,32,42.7H32A1,1,0,0,1,31.17,41L34,37.94a1.88,1.88,0,0,1,2.53-.15,3.07,3.07,0,0,0,1.53.78c1.16.09,4-8.1,4-8.1S45.11,29.82,46,29c1.66-1.64,1.87-2.56.29-3.46.22-.2,2.28-2,3.23-2,3.24-.1,4.89-6.95,7.3-7.48a7.85,7.85,0,0,0,2,2.63,5.24,5.24,0,0,1,1.77,2.21A14.59,14.59,0,0,1,61,29.5c-9.27-.95-12.85,3.64-12,4.06,14-6.12,19.42,4.89,21.64,10.11a.26.26,0,0,1-.44.26c-5.06-7.14-9-6.86-9.23-6.29-.07.16.36.56.53.62,3.15,1.21,5.95,4,6.31,5.16a10.19,10.19,0,0,1,.45,2,6.57,6.57,0,0,0,1.16,2.91,7.76,7.76,0,0,1,.75,4.27c-.07,8.6,4.94,11.46,6,13.31a3.27,3.27,0,0,1,.44,1.91c-.16,1.84-.38,3,.57,4.6a3.43,3.43,0,0,1,.37,2.47,34.28,34.28,0,0,1-1,3.28c-.29,1,0,1.32.66.67s.1,1.81,1.86,2.65c.43,2-.21,3.17.45,4.41s-1,1.82-.14,3.28-4,1-4.3,2.82c-.23,1.48-4.68,3-5.33,3.65a1.36,1.36,0,0,0-.37.62v0l6.39-1.17A23.37,23.37,0,0,1,78,94.21a16.71,16.71,0,0,1,2-.54l.15,0c6.16-1.46,5.64-.64,6.13,0s-.52,2.49,3.09,2.08l1.21.28a11.15,11.15,0,0,1,2.19-.62,6.93,6.93,0,0,1,3.77.16,3.85,3.85,0,0,1,2.26,2.31,37.64,37.64,0,0,1,5.08,2.14,1.54,1.54,0,0,0,1.31,0,1.45,1.45,0,0,1,2,.76,2.68,2.68,0,0,0,1.55,1.31l2.2.79,5.1-.94a2.12,2.12,0,0,1,1.75.47,2.15,2.15,0,0,1,.74,1.66v.45a6.71,6.71,0,0,1,3.76,2c.75,1.45,9.78,6,11.76,5.25,3.36-1,5.33-.23,6.4.62a1.35,1.35,0,0,1,.19,1.93l8.94-1.64a16.06,16.06,0,0,0,2.08-7.36h0C151.84,101.49,150.34,92.89,148.32,83.29Z"/><path class="cls-2" d="M84.52,29c-2.56-.56-2.3-.94-4.52-2.65a2.54,2.54,0,0,0-1.52-.52c-2.29,0-3.1-1-5-2.41a1.2,1.2,0,0,1-.21-.17L73,23a.92.92,0,0,0-1.53.85c.53,2.79,1.31,6.79,1.49,7.36,0,.12.06.24.08.36a42.24,42.24,0,0,0,.88,4.52,2.29,2.29,0,0,1,0,1.22,2.28,2.28,0,0,0,0,1.07l.05,0a86.11,86.11,0,0,0,3,8.16c1.21,2.76,1.58,7.08,3.3,10.19,2.3,4.17,4.69,16,4.63,16,.24,4.2,2,11.51,4.9,13.11l3.7,1.72a.53.53,0,0,0,.71-.76c-.33-.49-.71-1.07-1.11-1.71-2.58-4-6.3-10.27-5.57-11.93.87,1.48,1.27,2.7,2.48,2.94a.47.47,0,0,1,.27.14c1.16,1.45,3.11,6.06,5,9.1,1.31,2.15,6.83,7.37,7.8,6.2s-2.91-3-3.78-4.09l-.19-.25,0,0-.2-.27,0,0-.23-.32h0l-.26-.38c-1-1.46-2.27-3.37-2.27-3.37a38.88,38.88,0,0,0,7.19,6.18l.44.27.54.3.66.37.59.3.74.38.63.29.85.38.65.28,1,.39.66.25,1.17.41.6.2,1.91.57.11,0c3.15.36,3.5.5.81.75a.54.54,0,0,0-.15,1c3.85,1.42,5.8,1,8.72,1,3.66,0,7.95.79,5.72.73a6.74,6.74,0,0,0-3,.8,1,1,0,0,0,.07,1.8c2.85,1.12,9.18,4.06,10.51,3.39l.12-.08c.11-.09.23-.2.34-.31l.09-.09c.09-.09.17-.2.26-.3l.07-.09a4.35,4.35,0,0,0,.55-1,.49.49,0,0,0,0-.11,4.86,4.86,0,0,0,.19-.61.43.43,0,0,0,0,0,7.49,7.49,0,0,0,.18-1.67v-.13c0-.32,0-.65,0-1h0c-.13-1.44-2-6.64-2.8-8.83.27-1.45,1.39,2,2.39,4.45l.51,1.28h0a33.31,33.31,0,0,0,1.42,3.33c.95,2.12,2.37,6.89,3,6.39,1.4-1.08-1-5.72-1.17-7s-.09-4,0-5.55c0-.23,0-.44,0-.58s0-.21,0-.31c0-.28,0-.45,0-.45a.85.85,0,0,1,0-.15,11.16,11.16,0,0,0-.29-2.22c-.6-2.45-2.35-8.74-2.27-10.54-2.56-1.62-4.93-3-6.89-4a61.3,61.3,0,0,0-13-5A43.27,43.27,0,0,0,91,70.29c-.35-.43-.79-1-1.29-1.64,0,0-1.24-1.65-1.84-2.48-2.89-4.08-6.06-9.41-4.26-11.12C84.7,56,81.34,48.69,82,48c.21-.25-.11-1.59-.64-3.28l-1.09-3.11-.91-2.63-.71-1.86a57.55,57.55,0,0,1,17.92-1.34c-3.79-2.61-7.68-5.49-11.3-8.37-1.34.17-2.51-.92-2.35-.17C83.08,28.11,84.69,28.53,84.52,29Z"/><path class="cls-2" d="M130.85,123.19l-.23,7.57c1.39-1.17,2.73-2.3,4-3.36l.13-4.82-3.27.61A2.29,2.29,0,0,1,130.85,123.19Z"/></svg>